<svg xmlns="http://www.w3.org/2000/svg" viewBox="0 0 26 26">
    <title>1</title>
    <path d="M131.66,135.7H110.54a2.44,2.44,0,0,1-2.44-2.44V112.14a2.44,2.44,0,0,1,2.44-2.44H134.1v26Z"
          transform="translate(-108.1 -109.7)" style="fill:#f1f1f1;isolation:isolate"/>
    <path d="M112.1,127.76h18V130h-18Z" transform="translate(-108.1 -109.7)" style="fill:#333"/>
    <circle cx="13" cy="6.7" r="1.01" style="fill:#333"/>
    <path d="M121.1,117.41c-3.92,0-7.09,3.57-7.09,9.23h1.52a10.63,10.63,0,0,1,2.41-6.83.5.5,0,0,1,.7-.12h0a.52.52,0,0,1,.13.64l-.06.08a9.61,9.61,0,0,0-2.18,6.19h11.65C128.19,121,125,117.41,121.1,117.41Z"
          transform="translate(-108.1 -109.7)" style="fill:#333"/>
</svg>