<?xml version="1.0" encoding="utf-8"?>
<!-- Generator: Adobe Illustrator 27.0.0, SVG Export Plug-In . SVG Version: 6.00 Build 0)  -->
<svg version="1.1" id="Слой_1" xmlns="http://www.w3.org/2000/svg" xmlns:xlink="http://www.w3.org/1999/xlink" x="0px" y="0px"
	 width="40px" height="40px" viewBox="0 0 40 40" style="enable-background:new 0 0 40 40;" xml:space="preserve">
<style type="text/css">
	.st0{fill:#BEBEBE;}
	.st1{fill:#F1F1F1;}
</style>
<g>
	<path class="st0" d="M36.007,39.988h-32c-2.209,0-4-1.791-4-4v-32c0-2.209,1.791-4,4-4h32c2.209,0,4,1.791,4,4v32
		C40.007,38.197,38.216,39.988,36.007,39.988z"/>
</g>
<g>
	<g>
		<g>
			<path class="st1" d="M28,12.828v-2.106c0.595-0.347,1-0.985,1-1.722V8.5C29,8.224,28.776,8,28.5,8h-17C11.224,8,11,8.224,11,8.5
				V9c0,0.737,0.405,1.375,1,1.722v2.106c0,1.981,0.845,3.878,2.317,5.203L16.505,20l-2.188,1.969
				C12.845,23.294,12,25.191,12,27.172v2.106c-0.595,0.347-1,0.985-1,1.722v0.5c0,0.276,0.224,0.5,0.5,0.5h17
				c0.276,0,0.5-0.224,0.5-0.5V31c0-0.737-0.405-1.375-1-1.722v-2.106c0-1.981-0.845-3.878-2.317-5.203L23.495,20l2.188-1.969
				C27.155,16.706,28,14.809,28,12.828z M24.345,16.544l-3.014,2.712C21.12,19.446,21,19.716,21,20s0.12,0.554,0.331,0.743
				l3.014,2.712C25.396,24.402,26,25.757,26,27.172V29h-1.25l-4.35-5.8c-0.188-0.252-0.611-0.252-0.8,0L15.25,29H14v-1.828
				c0-1.415,0.604-2.77,1.655-3.717l3.014-2.712C18.88,20.554,19,20.284,19,20s-0.12-0.554-0.331-0.743l-3.014-2.712
				C14.603,15.598,14,14.243,14,12.828V11h12v1.828C26,14.243,25.396,15.598,24.345,16.544z"/>
			<path class="st1" d="M23.446,15h-6.893c-0.198,0-0.377,0.117-0.457,0.297c-0.08,0.181-0.046,0.392,0.087,0.539l3.481,3.212
				c0.095,0.086,0.215,0.129,0.335,0.129s0.24-0.043,0.335-0.129l3.481-3.212c0.133-0.146,0.167-0.357,0.087-0.539
				C23.823,15.117,23.644,15,23.446,15z"/>
		</g>
	</g>
</g>
</svg>
