<svg xmlns="http://www.w3.org/2000/svg" viewBox="0 0 169.15 20"><title>white</title><path d="M29.93,11.9H28.47v5.89H26.13V1.55h4.2c3.1,0,4.87,1.86,4.87,5.08,0,2.53-1.07,4.27-2.93,4.94l3.53,6.22H33.2ZM28.47,9.67h1.81c1.65,0,2.5-1.07,2.5-3s-.85-2.9-2.48-2.9H28.47Z" transform="translate(0)" style="fill:#fff"/><path d="M45.94,14a4.08,4.08,0,0,1-4.14,4l-.31,0c-2.56,0-4.16-1.67-4.16-4.59V9.81c0-2.9,1.6-4.55,4.18-4.55s4.27,1.65,4.27,4.55v2.71h-6.2v.93c0,1.67.72,2.43,2,2.43A2,2,0,0,0,43.74,14ZM39.58,9.78v1.05h4V9.78c0-1.67-.74-2.41-2-2.41S39.58,8.11,39.58,9.78Z" transform="translate(0)" style="fill:#fff"/><path d="M47.57,14h2.22a1.91,1.91,0,0,0,1.81,2h.3c1.18,0,1.86-.58,1.86-1.53,0-2.46-6-1.62-6-5.8,0-2.09,1.55-3.41,3.94-3.41a3.76,3.76,0,0,1,4,3.44,3.57,3.57,0,0,1,0,.46h-2.2a1.69,1.69,0,0,0-1.5-1.86h-.37C50.63,7.3,50,7.84,50,8.69c0,2.32,6,1.42,6,5.8,0,2.16-1.53,3.6-4.06,3.6a4,4,0,0,1-4.35-3.61A3.85,3.85,0,0,1,47.57,14Z" transform="translate(0)" style="fill:#fff"/><path d="M63.55,15.81v2.12h-.86c-2.44,0-3.87-1.56-3.87-4.09V7.6H57.1v-2h1.72V2.66H61v2.9h2.28v2H61v6.27c0,1.32.56,1.94,1.77,1.94Z" transform="translate(0)" style="fill:#fff"/><path d="M73.5,9.67v8.12H71.67l-.17-1.14a3,3,0,0,1-2.71,1.44A3.55,3.55,0,0,1,65,14.8a4,4,0,0,1,0-.49c0-2.51,1.74-3.78,4.43-3.78h1.79V9.67c0-1.44-.53-2.25-1.76-2.25A1.71,1.71,0,0,0,67.63,9H65.38a3.8,3.8,0,0,1,3.8-3.8l.35,0C72.15,5.26,73.5,6.86,73.5,9.67Zm-2.25,2.8H69.46c-1.36,0-2.15.63-2.15,1.84a1.71,1.71,0,0,0,1.63,1.8,1.51,1.51,0,0,0,.37,0,1.86,1.86,0,0,0,2-1.69v-.26Z" transform="translate(0)" style="fill:#fff"/><path d="M84.57,5.56V17.79H83l-.24-1.37a3.34,3.34,0,0,1-3,1.67c-2.12,0-3.44-1.51-3.44-4.85V5.56h2.25v7.56c0,2,.54,2.83,1.72,2.83s2.09-1,2.09-2.83V5.56Z" transform="translate(0)" style="fill:#fff"/><path d="M93.71,5.47V7.7a3.72,3.72,0,0,0-1.51-.28c-1.53,0-2.51,1-2.51,2.83v7.54H87.45V5.56h1.6L89.3,7a3.39,3.39,0,0,1,3.13-1.69A3.47,3.47,0,0,1,93.71,5.47Z" transform="translate(0)" style="fill:#fff"/><path d="M103.27,9.67v8.12h-1.84l-.16-1.14a3,3,0,0,1-2.71,1.44,3.55,3.55,0,0,1-3.76-3.33,3.38,3.38,0,0,1,0-.45c0-2.51,1.74-3.78,4.43-3.78H101V9.67c0-1.44-.54-2.25-1.77-2.25A1.7,1.7,0,0,0,97.4,9V9H95.15A3.79,3.79,0,0,1,99,5.24l.33,0C101.92,5.26,103.27,6.86,103.27,9.67ZM101,12.47H99.23c-1.37,0-2.16.63-2.16,1.84a1.71,1.71,0,0,0,1.63,1.8,1.51,1.51,0,0,0,.37,0,1.87,1.87,0,0,0,2-1.71v-.24Z" transform="translate(0)" style="fill:#fff"/><path d="M114.45,10.11v7.68H112.2V10.23c0-2-.54-2.83-1.72-2.83s-2.09,1-2.09,2.83v7.56h-2.24V5.56h1.59L108,6.93a3.34,3.34,0,0,1,3-1.67C113.13,5.26,114.45,6.77,114.45,10.11Z" transform="translate(0)" style="fill:#fff"/><path d="M122.61,15.81v2.12h-.85c-2.44,0-3.88-1.56-3.88-4.09V7.6h-1.71v-2h1.71V2.66h2.23v2.9h2.27v2h-2.27v6.27c0,1.32.56,1.94,1.76,1.94Z" transform="translate(0)" style="fill:#fff"/><path d="M129.72,13V6.35c0-3.29,1.8-5,4.75-5S139.08,3,139.2,6.24h-2.32c-.09-1.88-.93-2.69-2.41-2.69s-2.37.85-2.37,2.83V13c0,2,.93,2.83,2.44,2.83S137,15,137,13.12V11h-2.57V9h4.87v4.13c0,3.18-1.88,5-4.8,5S129.72,16.26,129.72,13Z" transform="translate(0)" style="fill:#fff"/><path d="M150,5.56V17.79h-1.6l-.23-1.37a3.38,3.38,0,0,1-3,1.67c-2.11,0-3.43-1.51-3.43-4.85V5.56H144v7.56c0,2,.53,2.83,1.72,2.83s2.08-1,2.08-2.83V5.56Z" transform="translate(0)" style="fill:#fff"/><path d="M159.15,5.47V7.7a3.67,3.67,0,0,0-1.5-.28c-1.53,0-2.51,1-2.51,2.83v7.54h-2.25V5.56h1.6L154.75,7a3.92,3.92,0,0,1,4.4-1.51Z" transform="translate(0)" style="fill:#fff"/><path d="M169.15,5.56V17.79h-1.6l-.23-1.37a3.38,3.38,0,0,1-3,1.67c-2.11,0-3.43-1.51-3.43-4.85V5.56h2.25v7.56c0,2,.53,2.83,1.72,2.83s2.08-1,2.08-2.83V5.56Z" transform="translate(0)" style="fill:#fff"/><path d="M9.68,3.61V1.79L10,2.3c.52.76,1.05,1.51,1.58,2.27l.2.3A.42.42,0,0,0,12.3,5l2.23-.78L17,3.38a1.84,1.84,0,0,1,.73-.16,1.33,1.33,0,0,1,1.07.54,1.49,1.49,0,0,1,.33.93,1.67,1.67,0,0,1-.4,1.09c-.27.34-.53.7-.79,1S17.33,7.6,17,8L15.81,9.63a.66.66,0,0,0-.12.17.43.43,0,0,0,.1.52l.51.68.87,1.12c.25.31.49.63.73.94l.78,1a2.34,2.34,0,0,1,.43.73.68.68,0,0,0,.06.34v.1h0a1.5,1.5,0,0,1-.23.74,1.4,1.4,0,0,1-1.57.67c-.43-.11-.83-.28-1.24-.42l-2.61-.91-1-.36a.52.52,0,0,0-.62.11,2.34,2.34,0,0,0-.29.41c-.32.46-.65.92-1,1.38L9.08,19.13a1.75,1.75,0,0,1-.56.65A2,2,0,0,1,8,20H7.48A2,2,0,0,1,7,19.8a1.42,1.42,0,0,1-.64-.94,2.3,2.3,0,0,1-.05-.45V8.05a3,3,0,0,1,.3-1.41,1.68,1.68,0,0,1,.89-.85.68.68,0,0,0,.36-.45A2.1,2.1,0,0,0,8,4.68V.52A.53.53,0,0,1,8.28,0H8.6c.13.07.26.12.3.29v4.4a2.55,2.55,0,0,1-.4,1.42,1.54,1.54,0,0,1-.62.54,1.25,1.25,0,0,0-.62.83,2.36,2.36,0,0,0-.07.65v10.3a.56.56,0,0,0,.6.54l.13,0a.71.71,0,0,0,.32-.32c.1-.14.19-.29.28-.43l.54-.77,1.7-2.5a2.39,2.39,0,0,1,.75-.83,1.48,1.48,0,0,1,1.05-.17,12.71,12.71,0,0,1,1.23.42l2.46.85,1.36.47a.39.39,0,0,0,.43-.13.48.48,0,0,0,.11-.46,1.58,1.58,0,0,0-.33-.48c-.49-.65-1-1.29-1.49-1.94s-.77-1-1.18-1.53a1.73,1.73,0,0,1-.46-1.37,1.3,1.3,0,0,1,.2-.57c.26-.38.55-.74.83-1.11s.76-1,1.14-1.52L18.05,5a.35.35,0,0,0,.09-.26.5.5,0,0,0-.48-.5.47.47,0,0,0-.17,0l-1.4.5c-1,.37-2.09.73-3.13,1.11A2,2,0,0,1,11.87,6,1.34,1.34,0,0,1,11,5.54c-.39-.53-.75-1.08-1.13-1.62A1.23,1.23,0,0,0,9.68,3.61Z" transform="translate(0)" style="fill:#fff"/><path d="M3.48,0a.53.53,0,0,1,.28.52v4.1a2,2,0,0,0,.18.87.74.74,0,0,0,.39.37,1.76,1.76,0,0,1,.75.68,2.54,2.54,0,0,1,.38,1.1c0,.2,0,.41,0,.61V19.5a.43.43,0,0,1-.4.43.38.38,0,0,1-.45-.3.29.29,0,0,1,0-.13V8a1.86,1.86,0,0,0-.3-1A.85.85,0,0,0,4,6.66,1.84,1.84,0,0,1,3,5.42a3.28,3.28,0,0,1-.1-.7V.56A.54.54,0,0,1,3.17,0Z" transform="translate(0)" style="fill:#fff"/><path d="M3.83,11.18v1.07c0,.08,0,.08-.09.06l-1.6-.51c-.38-.11-.77-.2-1.14-.33a1.42,1.42,0,0,1-1-1.12H0V9.72a1.73,1.73,0,0,1,.22-.5,1.47,1.47,0,0,1,.86-.6c.43-.12.85-.26,1.27-.39L3.82,7.8v1l-.94.29-1.5.45a.48.48,0,0,0-.34.57.47.47,0,0,0,.34.34c.67.2,1.34.4,2,.58A1.7,1.7,0,0,0,3.83,11.18Z" transform="translate(0)" style="fill:#fff"/><path d="M5.48,2.61v2A.6.6,0,0,1,5.39,5a.48.48,0,0,1-.45.16c-.22-.07-.3-.16-.34-.34a1.5,1.5,0,0,1,0-.3V.58A.46.46,0,0,1,4.89.09a.44.44,0,0,1,.56.28s0,0,0,.06v.93C5.46,1.67,5.48,2.2,5.48,2.61Z" transform="translate(0)" style="fill:#fff"/><path d="M7.14,2.62V4.74a.39.39,0,0,1-.36.42h0a.42.42,0,0,1-.49-.33V.55a.45.45,0,0,1,.39-.5A.47.47,0,0,1,7,.14a.37.37,0,0,1,.19.34Z" transform="translate(0)" style="fill:#fff"/><path d="M3.83,11.18a1.6,1.6,0,0,1-.43-.11c-.68-.18-1.35-.38-2-.58a.48.48,0,0,1-.34-.57.47.47,0,0,1,.34-.34l1.5-.45.94-.29Z" transform="translate(0)" style="fill:#d61516"/><path d="M9.68,3.61a1.19,1.19,0,0,1,.23.31c.38.54.74,1.09,1.13,1.62a1.41,1.41,0,0,0,.83.48A2,2,0,0,0,13,5.88c1-.38,2.09-.74,3.13-1.11l1.4-.5a.49.49,0,0,1,.62.3.51.51,0,0,1,0,.17.35.35,0,0,1-.09.26L16.86,6.56c-.38.51-.77,1-1.14,1.52s-.57.73-.83,1.11a1.3,1.3,0,0,0-.2.57,1.73,1.73,0,0,0,.46,1.37c.41.5.79,1,1.18,1.53s1,1.29,1.49,1.94a1.58,1.58,0,0,1,.33.48.48.48,0,0,1-.11.46.39.39,0,0,1-.43.13l-1.36-.47-2.46-.85a12.71,12.71,0,0,0-1.23-.42,1.48,1.48,0,0,0-1.05.17,2.39,2.39,0,0,0-.75.83l-1.7,2.5-.54.77H8.39c-.26,0-.33-.12-.4-.33a1.71,1.71,0,0,1,0-.32V8a1.39,1.39,0,0,1,.17-.6.37.37,0,0,1,.17-.13A2.53,2.53,0,0,0,9.52,5.53a4.45,4.45,0,0,0,.13-.89C9.68,4.29,9.65,4,9.68,3.61Z" transform="translate(0)" style="fill:#d61516"/></svg>