<svg xmlns="http://www.w3.org/2000/svg" viewBox="0 0 40 40"><title>1</title><rect width="40" height="40" style="fill:none"/><path d="M24.5,15l.1-.1a8.7,8.7,0,0,0,1.6-3,8.52,8.52,0,0,0,.4-2.31h0a4.63,4.63,0,0,0-2-3.9l-.1-.19a3.6,3.6,0,0,0-4.2,0l-.3.2a4.55,4.55,0,0,0-2,4h0a10.76,10.76,0,0,0,.7,3.1,8.17,8.17,0,0,0,1.2,2l.3.2a3,3,0,0,0,4.1.4C24.3,15.33,24.4,15.23,24.5,15Z" transform="translate(-2.5 4.86)" style="fill:#b71c1c"/><path d="M32.5,21.43c-.3-2.8-3.7-4.3-6.2-5.3a2.65,2.65,0,0,1-.5.6h-.1a4.37,4.37,0,0,1-3.7,1.7,4.68,4.68,0,0,1-3.1-1.5l-.2-.31a1.85,1.85,0,0,1-.4-.6c-2.4,1-5.6,2.6-5.8,5.3h0v2.4a1.69,1.69,0,0,0,1.7,1.7H30.7a1.79,1.79,0,0,0,1.8-1.8V21.43Z" transform="translate(-2.5 4.86)" style="fill:#b71c1c"/></svg>