<svg width="25" height="25" viewBox="0 0 25 25" fill="none" xmlns="http://www.w3.org/2000/svg">
    <path fill-rule="evenodd" clip-rule="evenodd" d="M18.1401 14.9815C17.8305 14.8265 16.3087 14.0778 16.025 13.9743C15.7414 13.871 15.535 13.8195 15.3285 14.1293C15.1222 14.4391 14.529 15.1364 14.3484 15.343C14.1679 15.5495 13.9873 15.5754 13.6778 15.4204C13.3682 15.2655 12.3708 14.9386 11.1886 13.8841C10.2684 13.0632 9.64718 12.0497 9.46665 11.7398C9.28605 11.4299 9.44732 11.2624 9.60231 11.108C9.74161 10.9694 9.91194 10.7465 10.0667 10.5657C10.2214 10.385 10.273 10.2558 10.3762 10.0494C10.4794 9.8427 10.4278 9.66201 10.3504 9.5071C10.273 9.35217 9.65395 7.82851 9.396 7.20869C9.14474 6.60517 8.88955 6.68692 8.69955 6.67733C8.51921 6.66839 8.31264 6.66647 8.10632 6.66647C7.89997 6.66647 7.56459 6.74394 7.28081 7.05374C6.99716 7.36363 6.19749 8.11256 6.19749 9.63603C6.19749 11.1597 7.3066 12.6316 7.46142 12.8381C7.61623 13.0448 9.64405 16.1712 12.7493 17.5121C13.4877 17.831 14.0643 18.0215 14.5139 18.1641C15.2553 18.3997 15.9301 18.3665 16.4635 18.2867C17.0582 18.1979 18.2949 17.5379 18.5528 16.815C18.8107 16.0918 18.8107 15.4721 18.7333 15.343C18.6559 15.2139 18.4496 15.1364 18.1401 14.9815ZM12.4922 22.693H12.4881C10.6404 22.6923 8.8283 22.1959 7.2474 21.2578L6.8714 21.0346L2.97439 22.0569L4.01453 18.2573L3.76978 17.8677C2.73907 16.2283 2.19467 14.3336 2.19547 12.388C2.19774 6.71101 6.81682 2.09229 12.4964 2.09229C15.2466 2.09327 17.8318 3.16568 19.7759 5.11198C21.7199 7.05815 22.7898 9.64512 22.7887 12.3964C22.7865 18.0739 18.1675 22.693 12.4922 22.693ZM21.2554 3.63305C18.9166 1.29146 15.8061 0.0013365 12.4922 0C5.66392 0 0.106564 5.55699 0.103802 12.3873C0.102911 14.5707 0.673329 16.7018 1.75741 18.5805L0 25L6.56711 23.2773C8.3766 24.2643 10.4138 24.7845 12.4872 24.7851H12.4923C19.3198 24.7851 24.8776 19.2276 24.8804 12.3972C24.8817 9.08709 23.5943 5.9746 21.2554 3.63305Z" fill="white"/>
</svg>
